<?xml version="1.0" encoding="iso-8859-1"?><!-- Generator: Adobe Illustrator 21.1.0, SVG Export Plug-In . SVG Version: 6.00 Build 0)  --><svg fill="#fff" xmlns="http://www.w3.org/2000/svg" xmlns:xlink="http://www.w3.org/1999/xlink" viewBox="0 0 50 50" width="50px" height="50px"><path d="M41.863,9.4c-0.1-0.1-0.2-0.2-0.299-0.3C40.766,8.2,39.588,8,38.69,8c-0.653,0-4.895,1.343-9.359,5.299c-0.422,0.374-0.44,1.027-0.048,1.432c1.617,1.671,6.039,5.95,8.689,10.169c3.293,5.4,5.289,9.7,4.091,15.6C45.755,36.4,48.05,31,48.05,25C47.95,19,45.655,13.5,41.863,9.4z"/><path d="M25.663,19.294c-0.383-0.344-0.955-0.341-1.335,0.007c-1.69,1.547-6.051,5.876-7.012,6.999c-2.295,2.4-8.681,10-9.08,14.3c0,0-1.397-3.4,1.696-11.2c1.925-4.686,7.904-11.652,10.803-14.691c0.385-0.403,0.376-1.039-0.031-1.421c-0.96-0.899-3.198-2.475-5.215-3.688l0,0C14.093,8.7,12.497,8.1,11,8C9.403,8,8.237,9.3,8.237,9.3C4.445,13.4,2.05,18.9,2.05,25c0,12.7,10.278,23,22.95,23c6.685,0,12.772-2.9,16.963-7.5c0,0-0.499-3-3.592-7.4C34.912,27.883,27.906,21.311,25.663,19.294z"/><g><path d="M25,2c-4.291,0-8.382,1.2-11.774,3.3c-0.219,0.073-0.597,0.361-0.941,0.666c3.045-2.419,10.086,2.427,12.142,3.87c0.346,0.243,0.801,0.243,1.147,0c2.056-1.443,9.097-6.29,12.142-3.87c-0.344-0.305-0.723-0.593-0.941-0.666C33.382,3.2,29.291,2,25,2z"/><path d="M12.052,6.182c0.076-0.075,0.151-0.151,0.233-0.215c-0.082,0.073-0.156,0.143-0.231,0.215H12.052z"/></g></svg>